# xmcd
#
# Track frame offsets:
#	150
#	17542
#	37840
#	58355
#	77015
#	98022
#	113270
#	135830
#	166385
#	195190
#	217295
#	235590
#	253870
#	273585
#	294100
#	313390
#
# Disc length: 4469 seconds
#
# Revision: 1
# Processed by: cddbd v1.5PL3 Copyright (c) Steve Scherf et al.
# Submitted via: CDex 1.50Beta5
#
DISCID=d1117310
DTITLE=男闘呼組 - 男闘呼組 ヒット・コレクション
DYEAR=1900
DGENRE=Pop
TTITLE0=DAYBREAK
TTITLE1=秋
TTITLE2=TIME ZONE
TTITLE3=CROSS TO YOU
TTITLE4=DON'T SLEEP
TTITLE5=ROLLIN' IN THE DARK
TTITLE6=ANGEL
TTITLE7=眠りにつく前に
TTITLE8=THURSDAY MORNING
TTITLE9=THE FRONT
TTITLE10=TOKYOプラスティック少年
TTITLE11=OVERTURE〜ルート・17
TTITLE12=ロックよ静かに流れよ〜Crossin' Heart〜
TTITLE13=第二章 追憶の挽歌
TTITLE14=Stand Out
TTITLE15=Midnight Train
EXTD=
EXTT0=
EXTT1=
EXTT2=
EXTT3=
EXTT4=
EXTT5=
EXTT6=
EXTT7=
EXTT8=
EXTT9=
EXTT10=
EXTT11=
EXTT12=
EXTT13=
EXTT14=
EXTT15=
PLAYORDER=
